<svg xmlns="http://www.w3.org/2000/svg" viewBox="0 0 44.96 28.78"><defs><style>.cls-1{fill:#fff;fill-rule:evenodd;}</style></defs><g id="Layer_2" data-name="Layer 2"><g id="Layer_1-2" data-name="Layer 1"><path class="cls-1" d="M45,.64V5.05a.63.63,0,0,1-.35.57L22.82,16.91a.66.66,0,0,1-.58,0L.43,5.62a.64.64,0,0,1-.34-.57V.64A.64.64,0,0,1,.73,0H44.32A.64.64,0,0,1,45,.64Z"/><path class="cls-1" d="M44.87,9.13v19a.64.64,0,0,1-.64.64H.64A.64.64,0,0,1,0,28.14v-19a.64.64,0,0,1,.93-.57l21.22,11a.66.66,0,0,0,.58,0l21.21-11A.64.64,0,0,1,44.87,9.13Z"/></g></g></svg>