<?xml version="1.0" encoding="UTF-8"?><svg id="Layer_1" xmlns="http://www.w3.org/2000/svg" viewBox="0 0 500 500"><defs><style>.cls-1{fill:#efecea;}.cls-2{fill:#192b38;}.cls-3{fill:#295175;}</style></defs><rect class="cls-3" width="500" height="500" rx="58.13" ry="58.13"/><path class="cls-2" d="m338.87,428.26l.52-136.53c31.51,14.46,50.81,33.02,50.81,67.23,0,33.14-19.32,60.43-51.33,69.3Zm-50.72-317.1c6.61-3.88,14.64-4.61,21.82-1.92,14.07,5.27,18.7,16.22,18.7,42.15l.21,79.8c-38.71-14.79-68.92-31.81-68.92-70.53,0-20.81,10.56-39.15,28.19-49.5Zm51.46,124.02l.31-82.72c0-8.36.55-15.25,1.66-20.92,3.32-16.96,22.6-25.72,37.56-17.07.05.03.11.06.16.09,14.01,8.15,18.61,15.79,18.61,15.79l9.97,28.84h11.78s-2.14-43.62-2.14-43.62c-34.12-22.86-63.78-24.05-92.72-24.05-70.75.53-107.19,47.7-107.19,91.65,0,12.96,2.33,24.19,6.58,34.04.38.88-.8,1.59-1.39.82l-95.66-123.46h-41.61s-23.38,0-23.38,0h-31.49s1.61,8.04,1.61,8.04c0,0,35.84-.43,68.69,41.5l218.61,278.97h0s6.04,7.7,6.04,7.7c-2.87.31-5.82.5-8.85.53-33.23,0-63.78-14.47-82.54-48.24l-17.15-43.95h-9.11s3.75,84.68,3.75,84.68c30.55,9.65,69.14,18.22,101.83,17.68,75.57,0,122.74-53.6,122.74-103.44,0-56.37-38.86-81.67-96.69-102.88Zm-92.28,14.5c-.6-.77.41-1.75,1.16-1.13,16.54,13.57,38.52,23.44,62.93,32.16,6.16,2.15,12.04,4.32,17.61,6.57l.17,66.15-1.07.55-80.81-104.3Z"/><path class="cls-2" d="m339.58,427.54l.52-136.53c31.51,14.46,50.81,33.02,50.81,67.23,0,33.14-19.32,60.43-51.33,69.3Zm-50.72-317.1c6.61-3.88,14.64-4.61,21.82-1.92,14.07,5.27,18.7,16.22,18.7,42.15l.21,79.8c-38.71-14.79-68.92-31.81-68.92-70.53,0-20.81,10.56-39.15,28.19-49.5Zm51.46,124.02l.31-82.72c0-8.36.55-15.25,1.66-20.92,3.32-16.96,22.6-25.72,37.56-17.07.05.03.11.06.16.09,14.01,8.15,18.61,15.79,18.61,15.79l9.97,28.84h11.78s-2.14-43.62-2.14-43.62c-34.12-22.86-63.78-24.16-92.72-24.05-70.75.27-107.19,47.7-107.19,91.65,0,12.96,2.33,24.19,6.58,34.04.38.88-.8,1.59-1.39.82l-95.66-123.46h-41.61s-23.38,0-23.38,0h-31.49s1.61,8.04,1.61,8.04c0,0,35.84-.43,68.69,41.5l218.61,278.97h0s6.04,7.7,6.04,7.7c-2.87.31-5.82.52-8.85.53-33.23.2-63.78-14.47-82.54-48.24l-17.15-43.95h-9.11s3.75,84.68,3.75,84.68c30.55,9.65,69.13,17.42,101.83,17.68,75.57.62,122.74-53.6,122.74-103.44,0-56.37-38.86-81.67-96.69-102.88Zm-92.28,14.5c-.6-.77.41-1.75,1.16-1.13,16.54,13.57,38.48,23.54,62.93,32.16,6.15,2.17,12.04,4.32,17.61,6.57l.17,66.15-1.07.55-80.81-104.3Z"/><path class="cls-2" d="m340.3,426.82l.52-136.53c31.51,14.46,50.81,33.02,50.81,67.23,0,33.14-19.32,60.43-51.33,69.3Zm-50.72-317.1c6.61-3.88,14.64-4.61,21.82-1.92,14.07,5.27,18.7,16.22,18.7,42.15l.21,79.8c-38.71-14.79-68.92-31.81-68.92-70.53,0-20.81,10.56-39.15,28.19-49.5Zm51.46,124.02l.31-82.72c0-8.36.55-15.25,1.66-20.92,3.32-16.96,22.6-25.72,37.56-17.07.05.03.11.06.16.09,14.01,8.15,18.61,15.79,18.61,15.79l9.97,28.84h11.78s-2.14-43.62-2.14-43.62c-34.12-22.86-63.78-24.16-92.72-24.05-70.75.27-107.19,47.7-107.19,91.65,0,12.96,2.33,24.19,6.58,34.04.38.88-.8,1.59-1.39.82l-95.66-123.46h-41.61s-23.38,0-23.38,0h-31.49s1.61,8.04,1.61,8.04c0,0,35.84-.43,68.69,41.5l218.61,278.97h0s6.04,7.7,6.04,7.7c-2.87.31-5.82.52-8.85.53-33.23.2-63.78-14.47-82.54-48.24l-17.15-43.95h-9.11s3.75,84.68,3.75,84.68c30.55,9.65,69.13,17.42,101.83,17.68,75.57.62,122.74-53.6,122.74-103.44,0-56.37-38.86-81.67-96.69-102.88Zm-92.28,14.5c-.6-.77.41-1.75,1.16-1.13,16.54,13.57,38.48,23.54,62.93,32.16,6.15,2.17,12.04,4.32,17.61,6.57l.17,66.15-1.07.55-80.81-104.3Z"/><path class="cls-2" d="m341.02,426.11l.52-136.53c31.51,14.46,50.81,33.02,50.81,67.23,0,33.14-19.32,60.43-51.33,69.3Zm-50.72-317.1c6.61-3.88,14.64-4.61,21.82-1.92,14.07,5.27,18.7,16.22,18.7,42.15l.21,79.8c-38.71-14.79-68.92-31.81-68.92-70.53,0-20.81,10.56-39.15,28.19-49.5Zm51.46,124.02l.31-82.72c0-8.36.55-15.25,1.66-20.92,3.32-16.96,22.6-25.72,37.56-17.07.05.03.11.06.16.09,14.01,8.15,18.61,15.79,18.61,15.79l9.97,28.84h11.78s-2.14-43.62-2.14-43.62c-34.12-22.86-63.78-24.16-92.72-24.05-70.75.27-107.19,47.7-107.19,91.65,0,12.96,2.33,24.19,6.58,34.04.38.88-.8,1.59-1.39.82l-95.66-123.46h-41.61s-23.38,0-23.38,0h-31.49s1.61,8.04,1.61,8.04c0,0,35.84-.43,68.69,41.5l218.61,278.97h0s6.04,7.7,6.04,7.7c-2.87.31-5.82.52-8.85.53-33.23.2-63.78-14.47-82.54-48.24l-17.15-43.95h-9.11s3.75,84.68,3.75,84.68c30.55,9.65,69.13,17.42,101.83,17.68,75.57.62,122.74-53.6,122.74-103.44,0-56.37-38.86-81.67-96.69-102.88Zm-92.28,14.5c-.6-.77.41-1.75,1.16-1.13,16.54,13.57,38.48,23.54,62.93,32.16,6.15,2.17,12.04,4.32,17.61,6.57l.17,66.15-1.07.55-80.81-104.3Z"/><path class="cls-2" d="m341.74,425.39l.52-136.53c31.51,14.46,50.81,33.02,50.81,67.23,0,33.14-19.32,60.43-51.33,69.3Zm-50.72-317.1c6.61-3.88,14.64-4.61,21.82-1.92,14.07,5.27,18.7,16.22,18.7,42.15l.21,79.8c-38.71-14.79-68.92-31.81-68.92-70.53,0-20.81,10.56-39.15,28.19-49.5Zm51.46,124.02l.31-82.72c0-8.36.55-15.25,1.66-20.92,3.32-16.96,22.6-25.72,37.56-17.07.05.03.11.06.16.09,14.01,8.15,18.61,15.79,18.61,15.79l9.97,28.84h11.78s-2.14-43.62-2.14-43.62c-34.12-22.86-63.78-24.16-92.72-24.05-70.75.27-107.19,47.7-107.19,91.65,0,12.96,2.33,24.19,6.58,34.04.38.88-.8,1.59-1.39.82l-95.66-123.46h-41.61s-23.38,0-23.38,0h-31.49s1.61,8.04,1.61,8.04c0,0,35.84-.43,68.69,41.5l218.61,278.97h0s6.04,7.7,6.04,7.7c-2.87.31-5.82.52-8.85.53-33.23.2-63.78-14.47-82.54-48.24l-17.15-43.95h-9.11s3.75,84.68,3.75,84.68c30.55,9.65,69.13,17.42,101.83,17.68,75.57.62,122.74-53.6,122.74-103.44,0-56.37-38.86-81.67-96.69-102.88Zm-92.28,14.5c-.6-.77.41-1.75,1.16-1.13,16.54,13.57,38.48,23.54,62.93,32.16,6.15,2.17,12.04,4.32,17.61,6.57l.17,66.15-1.07.55-80.81-104.3Z"/><path class="cls-2" d="m342.46,424.67l.52-136.53c31.51,14.46,50.81,33.02,50.81,67.23,0,33.14-19.32,60.43-51.33,69.3Zm-50.72-317.1c6.61-3.88,14.64-4.61,21.82-1.92,14.07,5.27,18.7,16.22,18.7,42.15l.21,79.8c-38.71-14.79-68.92-31.81-68.92-70.53,0-20.81,10.56-39.15,28.19-49.5Zm51.46,124.02l.31-82.72c0-8.36.55-15.25,1.66-20.92,3.32-16.96,22.6-25.72,37.56-17.07.05.03.11.06.16.09,14.01,8.15,18.61,15.79,18.61,15.79l9.97,28.84h11.78s-2.14-43.62-2.14-43.62c-34.12-22.86-63.78-24.16-92.72-24.05-70.75.27-107.19,47.7-107.19,91.65,0,12.96,2.33,24.19,6.58,34.04.38.88-.8,1.59-1.39.82l-95.66-123.46h-41.61s-23.38,0-23.38,0h-31.49s1.61,8.04,1.61,8.04c0,0,35.84-.43,68.69,41.5l218.61,278.97h0s6.04,7.7,6.04,7.7c-2.87.31-5.82.52-8.85.53-33.23.2-63.78-14.47-82.54-48.24l-17.15-43.95h-9.11s3.75,84.68,3.75,84.68c30.55,9.65,69.13,17.42,101.83,17.68,75.57.62,122.74-53.6,122.74-103.44,0-56.37-38.86-81.67-96.69-102.88Zm-92.28,14.5c-.6-.77.41-1.75,1.16-1.13,16.54,13.57,38.48,23.54,62.93,32.16,6.15,2.17,12.04,4.32,17.61,6.57l.17,66.15-1.07.55-80.81-104.3Z"/><path class="cls-2" d="m343.18,423.95l.52-136.53c31.51,14.46,50.81,33.02,50.81,67.23,0,33.14-19.32,60.43-51.33,69.3Zm-50.72-317.1c6.61-3.88,14.64-4.61,21.82-1.92,14.07,5.27,18.7,16.22,18.7,42.15l.21,79.8c-38.71-14.79-68.92-31.81-68.92-70.53,0-20.81,10.56-39.15,28.19-49.5Zm51.46,124.02l.31-82.72c0-8.36.55-15.25,1.66-20.92,3.32-16.96,22.6-25.72,37.56-17.07.05.03.11.06.16.09,14.01,8.15,18.61,15.79,18.61,15.79l9.97,28.84h11.78s-2.14-43.62-2.14-43.62c-34.12-22.86-63.78-24.16-92.72-24.05-70.75.27-107.19,47.7-107.19,91.65,0,12.96,2.33,24.19,6.58,34.04.38.88-.8,1.59-1.39.82l-95.66-123.46h-41.61s-23.38,0-23.38,0h-31.49s1.61,8.04,1.61,8.04c0,0,35.84-.43,68.69,41.5l218.61,278.97h0s6.04,7.7,6.04,7.7c-2.87.31-5.82.52-8.85.53-33.23.2-63.78-14.47-82.54-48.24l-17.15-43.95h-9.11s3.75,84.68,3.75,84.68c30.55,9.65,69.13,17.42,101.83,17.68,75.57.62,122.74-53.6,122.74-103.44,0-56.37-38.86-81.67-96.69-102.88Zm-92.28,14.5c-.6-.77.41-1.75,1.16-1.13,16.54,13.57,38.48,23.54,62.93,32.16,6.15,2.17,12.04,4.32,17.61,6.57l.17,66.15-1.07.55-80.81-104.3Z"/><path class="cls-2" d="m343.89,423.23l.52-136.53c31.51,14.46,50.81,33.02,50.81,67.23,0,33.14-19.32,60.43-51.33,69.3Zm-50.72-317.1c6.61-3.88,14.64-4.61,21.82-1.92,14.07,5.27,18.7,16.22,18.7,42.15l.21,79.8c-38.71-14.79-68.92-31.81-68.92-70.53,0-20.81,10.56-39.15,28.19-49.5Zm51.46,124.02l.31-82.72c0-8.36.55-15.25,1.66-20.92,3.32-16.96,22.6-25.72,37.56-17.07.05.03.11.06.16.09,14.01,8.15,18.61,15.79,18.61,15.79l9.97,28.84h11.78s-2.14-43.62-2.14-43.62c-34.12-22.86-63.78-24.16-92.72-24.05-70.75.27-107.19,47.7-107.19,91.65,0,12.96,2.33,24.19,6.58,34.04.38.88-.8,1.59-1.39.82l-95.66-123.46h-41.61s-23.38,0-23.38,0h-31.49s1.61,8.04,1.61,8.04c0,0,35.84-.43,68.69,41.5l218.61,278.97h0s6.04,7.7,6.04,7.7c-2.87.31-5.82.52-8.85.53-33.23.2-63.78-14.47-82.54-48.24l-17.15-43.95h-9.11s3.75,84.68,3.75,84.68c30.55,9.65,69.13,17.42,101.83,17.68,75.57.62,122.74-53.6,122.74-103.44,0-56.37-38.86-81.67-96.69-102.88Zm-92.28,14.5c-.6-.77.41-1.75,1.16-1.13,16.54,13.57,38.48,23.54,62.93,32.16,6.15,2.17,12.04,4.32,17.61,6.57l.17,66.15-1.07.55-80.81-104.3Z"/><path class="cls-2" d="m344.61,422.51l.52-136.53c31.51,14.46,50.81,33.02,50.81,67.23,0,33.14-19.32,60.43-51.33,69.3Zm-50.72-317.1c6.61-3.88,14.64-4.61,21.82-1.92,14.07,5.27,18.7,16.22,18.7,42.15l.21,79.8c-38.71-14.79-68.92-31.81-68.92-70.53,0-20.81,10.56-39.15,28.19-49.5Zm51.46,124.02l.31-82.72c0-8.36.55-15.25,1.66-20.92,3.32-16.96,22.6-25.72,37.56-17.07.05.03.11.06.16.09,14.01,8.15,18.61,15.79,18.61,15.79l9.97,28.84h11.78s-2.14-43.62-2.14-43.62c-34.12-22.86-63.78-24.16-92.72-24.05-70.75.27-107.19,47.7-107.19,91.65,0,12.96,2.33,24.19,6.58,34.04.38.88-.8,1.59-1.39.82l-95.66-123.46h-41.61s-23.38,0-23.38,0h-31.49s1.61,8.04,1.61,8.04c0,0,35.84-.43,68.69,41.5l218.61,278.97h0s6.04,7.7,6.04,7.7c-2.87.31-5.82.52-8.85.53-33.23.2-63.78-14.47-82.54-48.24l-17.15-43.95h-9.11s3.75,84.68,3.75,84.68c30.55,9.65,69.13,17.42,101.83,17.68,75.57.62,122.74-53.6,122.74-103.44,0-56.37-38.86-81.67-96.69-102.88Zm-92.28,14.5c-.6-.77.41-1.75,1.16-1.13,16.54,13.57,38.48,23.54,62.93,32.16,6.15,2.17,12.04,4.32,17.61,6.57l.17,66.15-1.07.55-80.81-104.3Z"/><path class="cls-2" d="m345.33,421.8l.52-136.53c31.51,14.46,50.81,33.02,50.81,67.23,0,33.14-19.32,60.43-51.33,69.3Zm-50.72-317.1c6.61-3.88,14.64-4.61,21.82-1.92,14.07,5.27,18.7,16.22,18.7,42.15l.21,79.8c-38.71-14.79-68.92-31.81-68.92-70.53,0-20.81,10.56-39.15,28.19-49.5Zm51.46,124.02l.31-82.72c0-8.36.55-15.25,1.66-20.92,3.32-16.96,22.6-25.72,37.56-17.07.05.03.11.06.16.09,14.01,8.15,18.61,15.79,18.61,15.79l9.97,28.84h11.78s-2.14-43.62-2.14-43.62c-34.12-22.86-63.78-24.16-92.72-24.05-70.75.27-107.19,47.7-107.19,91.65,0,12.96,2.33,24.19,6.58,34.04.38.88-.8,1.59-1.39.82l-95.66-123.46h-41.61s-23.38,0-23.38,0h-31.49s1.61,8.04,1.61,8.04c0,0,35.84-.43,68.69,41.5l218.61,278.97h0s6.04,7.7,6.04,7.7c-2.87.31-5.82.52-8.85.53-33.23.2-63.78-14.47-82.54-48.24l-17.15-43.95h-9.11s3.75,84.68,3.75,84.68c30.55,9.65,69.13,17.42,101.83,17.68,75.57.62,122.74-53.6,122.74-103.44,0-56.37-38.86-81.67-96.69-102.88Zm-92.28,14.5c-.6-.77.41-1.75,1.16-1.13,16.54,13.57,38.48,23.54,62.93,32.16,6.15,2.17,12.04,4.32,17.61,6.57l.17,66.15-1.07.55-80.81-104.3Z"/><path class="cls-2" d="m346.05,421.08l.52-136.53c31.51,14.46,50.81,33.02,50.81,67.23,0,33.14-19.32,60.43-51.33,69.3Zm-50.72-317.1c6.61-3.88,14.64-4.61,21.82-1.92,14.07,5.27,18.7,16.22,18.7,42.15l.21,79.8c-38.71-14.79-68.92-31.81-68.92-70.53,0-20.81,10.56-39.15,28.19-49.5Zm51.46,124.02l.31-82.72c0-8.36.55-15.25,1.66-20.92,3.32-16.96,22.6-25.72,37.56-17.07.05.03.11.06.16.09,14.01,8.15,18.61,15.79,18.61,15.79l9.97,28.84h11.78s-2.14-43.62-2.14-43.62c-34.12-22.86-63.78-24.16-92.72-24.05-70.75.27-107.19,47.7-107.19,91.65,0,12.96,2.33,24.19,6.58,34.04.38.88-.8,1.59-1.39.82l-95.66-123.46h-41.61s-23.38,0-23.38,0h-31.49s1.61,8.04,1.61,8.04c0,0,35.84-.43,68.69,41.5l218.61,278.97h0s6.04,7.7,6.04,7.7c-2.87.31-5.82.52-8.85.53-33.23.2-63.78-14.47-82.54-48.24l-17.15-43.95h-9.11s3.75,84.68,3.75,84.68c30.55,9.65,69.13,17.42,101.83,17.68,75.57.62,122.74-53.6,122.74-103.44,0-56.37-38.86-81.67-96.69-102.88Zm-92.28,14.5c-.6-.77.41-1.75,1.16-1.13,16.54,13.57,38.48,23.54,62.93,32.16,6.15,2.17,12.04,4.32,17.61,6.57l.17,66.15-1.07.55-80.81-104.3Z"/><path class="cls-2" d="m346.77,420.36l.52-136.53c31.51,14.46,50.81,33.02,50.81,67.23,0,33.14-19.32,60.43-51.33,69.3Zm-50.72-317.1c6.61-3.88,14.64-4.61,21.82-1.92,14.07,5.27,18.7,16.22,18.7,42.15l.21,79.8c-38.71-14.79-68.92-31.81-68.92-70.53,0-20.81,10.56-39.15,28.19-49.5Zm51.46,124.02l.31-82.72c0-8.36.55-15.25,1.66-20.92,3.32-16.96,22.6-25.72,37.56-17.07.05.03.11.06.16.09,14.01,8.15,18.61,15.79,18.61,15.79l9.97,28.84h11.78s-2.14-43.62-2.14-43.62c-34.12-22.86-63.78-24.16-92.72-24.05-70.75.27-107.19,47.7-107.19,91.65,0,12.96,2.33,24.19,6.58,34.04.38.88-.8,1.59-1.39.82l-95.66-123.46h-41.61s-23.38,0-23.38,0h-31.49s1.61,8.04,1.61,8.04c0,0,35.84-.43,68.69,41.5l218.61,278.97h0s6.04,7.7,6.04,7.7c-2.87.31-5.82.52-8.85.53-33.23.2-63.78-14.47-82.54-48.24l-17.15-43.95h-9.11s3.75,84.68,3.75,84.68c30.55,9.65,69.13,17.42,101.83,17.68,75.57.62,122.74-53.6,122.74-103.44,0-56.37-38.86-81.67-96.69-102.88Zm-92.28,14.5c-.6-.77.41-1.75,1.16-1.13,16.54,13.57,38.48,23.54,62.93,32.16,6.15,2.17,12.04,4.32,17.61,6.57l.17,66.15-1.07.55-80.81-104.3Z"/><path class="cls-2" d="m347.49,419.64l.52-136.53c31.51,14.46,50.81,33.02,50.81,67.23,0,33.14-19.32,60.43-51.33,69.3Zm-50.72-317.1c6.61-3.88,14.64-4.61,21.82-1.92,14.07,5.27,18.7,16.22,18.7,42.15l.21,79.8c-38.71-14.79-68.92-31.81-68.92-70.53,0-20.81,10.56-39.15,28.19-49.5Zm51.46,124.02l.31-82.72c0-8.36.55-15.25,1.66-20.92,3.32-16.96,22.6-25.72,37.56-17.07.05.03.11.06.16.09,14.01,8.15,18.61,15.79,18.61,15.79l9.97,28.84h11.78s-2.14-43.62-2.14-43.62c-34.12-22.86-63.78-24.16-92.72-24.05-70.75.27-107.19,47.7-107.19,91.65,0,12.96,2.33,24.19,6.58,34.04.38.88-.8,1.59-1.39.82l-95.66-123.46h-41.61s-23.38,0-23.38,0h-31.49s1.61,8.04,1.61,8.04c0,0,35.84-.43,68.69,41.5l218.61,278.97h0s6.04,7.7,6.04,7.7c-2.87.31-5.82.52-8.85.53-33.23.2-63.78-14.47-82.54-48.24l-17.15-43.95h-9.11s3.75,84.68,3.75,84.68c30.55,9.65,69.13,17.42,101.83,17.68,75.57.62,122.74-53.6,122.74-103.44,0-56.37-38.86-81.67-96.69-102.88Zm-92.28,14.5c-.6-.77.41-1.75,1.16-1.13,16.54,13.57,38.48,23.54,62.93,32.16,6.15,2.17,12.04,4.32,17.61,6.57l.17,66.15-1.07.55-80.81-104.3Z"/><path class="cls-2" d="m348.2,418.92l.52-136.53c31.51,14.46,50.81,33.02,50.81,67.23,0,33.14-19.32,60.43-51.33,69.3Zm-50.72-317.1c6.61-3.88,14.64-4.61,21.82-1.92,14.07,5.27,18.7,16.22,18.7,42.15l.21,79.8c-38.71-14.79-68.92-31.81-68.92-70.53,0-20.81,10.56-39.15,28.19-49.5Zm51.46,124.02l.31-82.72c0-8.36.55-15.25,1.66-20.92,3.32-16.96,22.6-25.72,37.56-17.07.05.03.11.06.16.09,14.01,8.15,18.61,15.79,18.61,15.79l9.97,28.84h11.78s-2.14-43.62-2.14-43.62c-34.12-22.86-63.78-24.16-92.72-24.05-70.75.27-107.19,47.7-107.19,91.65,0,12.96,2.33,24.19,6.58,34.04.38.88-.8,1.59-1.39.82l-95.66-123.46h-41.61s-23.38,0-23.38,0h-31.49s1.61,8.04,1.61,8.04c0,0,35.84-.43,68.69,41.5l218.61,278.97h0s6.04,7.7,6.04,7.7c-2.87.31-5.82.52-8.85.53-33.23.2-63.78-14.47-82.54-48.24l-17.15-43.95h-9.11s3.75,84.68,3.75,84.68c30.55,9.65,69.13,17.42,101.83,17.68,75.57.62,122.74-53.6,122.74-103.44,0-56.37-38.86-81.67-96.69-102.88Zm-92.28,14.5c-.6-.77.41-1.75,1.16-1.13,16.54,13.57,38.48,23.54,62.93,32.16,6.15,2.17,12.04,4.32,17.61,6.57l.17,66.15-1.07.55-80.81-104.3Z"/><path class="cls-2" d="m348.92,418.2l.52-136.53c31.51,14.46,50.81,33.02,50.81,67.23,0,33.14-19.32,60.43-51.33,69.3Zm-50.72-317.1c6.61-3.88,14.64-4.61,21.82-1.92,14.07,5.27,18.7,16.22,18.7,42.15l.21,79.8c-38.71-14.79-68.92-31.81-68.92-70.53,0-20.81,10.56-39.15,28.19-49.5Zm51.46,124.02l.31-82.72c0-8.36.55-15.25,1.66-20.92,3.32-16.96,22.6-25.72,37.56-17.07.05.03.11.06.16.09,14.01,8.15,18.61,15.79,18.61,15.79l9.97,28.84h11.78s-2.14-43.62-2.14-43.62c-34.12-22.86-63.78-24.16-92.72-24.05-70.75.27-107.19,47.7-107.19,91.65,0,12.96,2.33,24.19,6.58,34.04.38.88-.8,1.59-1.39.82l-95.66-123.46h-41.61s-23.38,0-23.38,0h-31.49s1.61,8.04,1.61,8.04c0,0,35.84-.43,68.69,41.5l218.61,278.97h0s6.04,7.7,6.04,7.7c-2.87.31-5.82.52-8.85.53-33.23.2-63.78-14.47-82.54-48.24l-17.15-43.95h-9.11s3.75,84.68,3.75,84.68c30.55,9.65,69.13,17.42,101.83,17.68,75.57.62,122.74-53.6,122.74-103.44,0-56.37-38.86-81.67-96.69-102.88Zm-92.28,14.5c-.6-.77.41-1.75,1.16-1.13,16.54,13.57,38.48,23.54,62.93,32.16,6.15,2.17,12.04,4.32,17.61,6.57l.17,66.15-1.07.55-80.81-104.3Z"/><path class="cls-2" d="m349.64,417.49l.52-136.53c31.51,14.46,50.81,33.02,50.81,67.23,0,33.14-19.32,60.43-51.33,69.3Zm-50.72-317.1c6.61-3.88,14.64-4.61,21.82-1.92,14.07,5.27,18.7,16.22,18.7,42.15l.21,79.8c-38.71-14.79-68.92-31.81-68.92-70.53,0-20.81,10.56-39.15,28.19-49.5Zm51.46,124.02l.31-82.72c0-8.36.55-15.25,1.66-20.92,3.32-16.96,22.6-25.72,37.56-17.07.05.03.11.06.16.09,14.01,8.15,18.61,15.79,18.61,15.79l9.97,28.84h11.78s-2.14-43.62-2.14-43.62c-34.12-22.86-63.78-24.16-92.72-24.05-70.75.27-107.19,47.7-107.19,91.65,0,12.96,2.33,24.19,6.58,34.04.38.88-.8,1.59-1.39.82l-95.66-123.46h-41.61s-23.38,0-23.38,0h-31.49s1.61,8.04,1.61,8.04c0,0,35.84-.43,68.69,41.5l218.61,278.97h0s6.04,7.7,6.04,7.7c-2.87.31-5.82.52-8.85.53-33.23.2-63.78-14.47-82.54-48.24l-17.15-43.95h-9.11s3.75,84.68,3.75,84.68c30.55,9.65,69.13,17.42,101.83,17.68,75.57.62,122.74-53.6,122.74-103.44,0-56.37-38.86-81.67-96.69-102.88Zm-92.28,14.5c-.6-.77.41-1.75,1.16-1.13,16.54,13.57,38.48,23.54,62.93,32.16,6.15,2.17,12.04,4.32,17.61,6.57l.17,66.15-1.07.55-80.81-104.3Z"/><path class="cls-2" d="m350.36,416.77l.52-136.53c31.51,14.46,50.81,33.02,50.81,67.23,0,33.14-19.32,60.43-51.33,69.3Zm-50.72-317.1c6.61-3.88,14.64-4.61,21.82-1.92,14.07,5.27,18.7,16.22,18.7,42.15l.21,79.8c-38.71-14.79-68.92-31.81-68.92-70.53,0-20.81,10.56-39.15,28.19-49.5Zm51.46,124.02l.31-82.72c0-8.36.55-15.25,1.66-20.92,3.32-16.96,22.6-25.72,37.56-17.07.05.03.11.06.16.09,14.01,8.15,18.61,15.79,18.61,15.79l9.97,28.84h11.78s-2.14-43.62-2.14-43.62c-34.12-22.86-63.78-24.16-92.72-24.05-70.75.27-107.19,47.7-107.19,91.65,0,12.96,2.33,24.19,6.58,34.04.38.88-.8,1.59-1.39.82l-95.66-123.46h-41.61s-23.38,0-23.38,0h-31.49s1.61,8.04,1.61,8.04c0,0,35.84-.43,68.69,41.5l218.61,278.97h0s6.04,7.7,6.04,7.7c-2.87.31-5.82.52-8.85.53-33.23.2-63.78-14.47-82.54-48.24l-17.15-43.95h-9.11s3.75,84.68,3.75,84.68c30.55,9.65,69.13,17.42,101.83,17.68,75.57.62,122.74-53.6,122.74-103.44,0-56.37-38.86-81.67-96.69-102.88Zm-92.28,14.5c-.6-.77.41-1.75,1.16-1.13,16.54,13.57,38.48,23.54,62.93,32.16,6.15,2.17,12.04,4.32,17.61,6.57l.17,66.15-1.07.55-80.81-104.3Z"/><path class="cls-2" d="m351.08,416.05l.52-136.53c31.51,14.46,50.81,33.02,50.81,67.23,0,33.14-19.32,60.43-51.33,69.3Zm-50.72-317.1c6.61-3.88,14.64-4.61,21.82-1.92,14.07,5.27,18.7,16.22,18.7,42.15l.21,79.8c-38.71-14.79-68.92-31.81-68.92-70.53,0-20.81,10.56-39.15,28.19-49.5Zm51.46,124.02l.31-82.72c0-8.36.55-15.25,1.66-20.92,3.32-16.96,22.6-25.72,37.56-17.07.05.03.11.06.16.09,14.01,8.15,18.61,15.79,18.61,15.79l9.97,28.84h11.78s-2.14-43.62-2.14-43.62c-34.12-22.86-63.78-24.16-92.72-24.05-70.75.27-107.19,47.7-107.19,91.65,0,12.96,2.33,24.19,6.58,34.04.38.88-.8,1.59-1.39.82l-95.66-123.46h-41.61s-23.38,0-23.38,0h-31.49s1.61,8.04,1.61,8.04c0,0,35.84-.43,68.69,41.5l218.61,278.97h0s6.04,7.7,6.04,7.7c-2.87.31-5.82.52-8.85.53-33.23.2-63.78-14.47-82.54-48.24l-17.15-43.95h-9.11s3.75,84.68,3.75,84.68c30.55,9.65,69.13,17.42,101.83,17.68,75.57.62,122.74-53.6,122.74-103.44,0-56.37-38.86-81.67-96.69-102.88Zm-92.28,14.5c-.6-.77.41-1.75,1.16-1.13,16.54,13.57,38.48,23.54,62.93,32.16,6.15,2.17,12.04,4.32,17.61,6.57l.17,66.15-1.07.55-80.81-104.3Z"/><path class="cls-2" d="m351.8,415.33l.52-136.53c31.51,14.46,50.81,33.02,50.81,67.23,0,33.14-19.32,60.43-51.33,69.3Zm-50.72-317.1c6.61-3.88,14.64-4.61,21.82-1.92,14.07,5.27,18.7,16.22,18.7,42.15l.21,79.8c-38.71-14.79-68.92-31.81-68.92-70.53,0-20.81,10.56-39.15,28.19-49.5Zm51.46,124.02l.31-82.72c0-8.36.55-15.25,1.66-20.92,3.32-16.96,22.6-25.72,37.56-17.07.05.03.11.06.16.09,14.01,8.15,18.61,15.79,18.61,15.79l9.97,28.84h11.78s-2.14-43.62-2.14-43.62c-34.12-22.86-63.78-24.16-92.72-24.05-70.75.27-107.19,47.7-107.19,91.65,0,12.96,2.33,24.19,6.58,34.04.38.88-.8,1.59-1.39.82l-95.66-123.46h-41.61s-23.38,0-23.38,0h-31.49s1.61,8.04,1.61,8.04c0,0,35.84-.43,68.69,41.5l218.61,278.97h0s6.04,7.7,6.04,7.7c-2.87.31-5.82.52-8.85.53-33.23.2-63.78-14.47-82.54-48.24l-17.15-43.95h-9.11s3.75,84.68,3.75,84.68c30.55,9.65,69.13,17.42,101.83,17.68,75.57.62,122.74-53.6,122.74-103.44,0-56.37-38.86-81.67-96.69-102.88Zm-92.28,14.5c-.6-.77.41-1.75,1.16-1.13,16.54,13.57,38.48,23.54,62.93,32.16,6.15,2.17,12.04,4.32,17.61,6.57l.17,66.15-1.07.55-80.81-104.3Z"/><path class="cls-2" d="m352.51,414.61l.52-136.53c31.51,14.46,50.81,33.02,50.81,67.23,0,33.14-19.32,60.43-51.33,69.3Zm-50.72-317.1c6.61-3.88,14.64-4.61,21.82-1.92,14.07,5.27,18.7,16.22,18.7,42.15l.21,79.8c-38.71-14.79-68.92-31.81-68.92-70.53,0-20.81,10.56-39.15,28.19-49.5Zm51.46,124.02l.31-82.72c0-8.36.55-15.25,1.66-20.92,3.32-16.96,22.6-25.72,37.56-17.07.05.03.11.06.16.09,14.01,8.15,18.61,15.79,18.61,15.79l9.97,28.84h11.78s-2.14-43.62-2.14-43.62c-34.12-22.86-63.78-24.16-92.72-24.05-70.75.27-107.19,47.7-107.19,91.65,0,12.96,2.33,24.19,6.58,34.04.38.88-.8,1.59-1.39.82l-95.66-123.46h-41.61s-23.38,0-23.38,0h-31.49s1.61,8.04,1.61,8.04c0,0,35.84-.43,68.69,41.5l218.61,278.97h0s6.04,7.7,6.04,7.7c-2.87.31-5.82.52-8.85.53-33.23.2-63.78-14.47-82.54-48.24l-17.15-43.95h-9.11s3.75,84.68,3.75,84.68c30.55,9.65,69.13,17.42,101.83,17.68,75.57.62,122.74-53.6,122.74-103.44,0-56.37-38.86-81.67-96.69-102.88Zm-92.28,14.5c-.6-.77.41-1.75,1.16-1.13,16.54,13.57,38.48,23.54,62.93,32.16,6.15,2.17,12.04,4.32,17.61,6.57l.17,66.15-1.07.55-80.81-104.3Z"/><path class="cls-2" d="m353.23,413.89l.52-136.53c31.51,14.46,50.81,33.02,50.81,67.23,0,33.14-19.32,60.43-51.33,69.3Zm-50.72-317.1c6.61-3.88,14.64-4.61,21.82-1.92,14.07,5.27,18.7,16.22,18.7,42.15l.21,79.8c-38.71-14.79-68.92-31.81-68.92-70.53,0-20.81,10.56-39.15,28.19-49.5Zm51.46,124.02l.31-82.72c0-8.36.55-15.25,1.66-20.92,3.32-16.96,22.6-25.72,37.56-17.07.05.03.11.06.16.09,14.01,8.15,18.61,15.79,18.61,15.79l9.97,28.84h11.78s-2.14-43.62-2.14-43.62c-34.12-22.86-63.78-24.16-92.72-24.05-70.75.27-107.19,47.7-107.19,91.65,0,12.96,2.33,24.19,6.58,34.04.38.88-.8,1.59-1.39.82l-95.66-123.46h-41.61s-23.38,0-23.38,0h-31.49s1.61,8.04,1.61,8.04c0,0,35.84-.43,68.69,41.5l218.61,278.97h0s6.04,7.7,6.04,7.7c-2.87.31-5.82.52-8.85.53-33.23.2-63.78-14.47-82.54-48.24l-17.15-43.95h-9.11s3.75,84.68,3.75,84.68c30.55,9.65,69.13,17.42,101.83,17.68,75.57.62,122.74-53.6,122.74-103.44,0-56.37-38.86-81.67-96.69-102.88Zm-92.28,14.5c-.6-.77.41-1.75,1.16-1.13,16.54,13.57,38.48,23.54,62.93,32.16,6.15,2.17,12.04,4.32,17.61,6.57l.17,66.15-1.07.55-80.81-104.3Z"/><path class="cls-2" d="m353.95,413.18l.52-136.53c31.51,14.46,50.81,33.02,50.81,67.23,0,33.14-19.32,60.43-51.33,69.3Zm-50.72-317.1c6.61-3.88,14.64-4.61,21.82-1.92,14.07,5.27,18.7,16.22,18.7,42.15l.21,79.8c-38.71-14.79-68.92-31.81-68.92-70.53,0-20.81,10.56-39.15,28.19-49.5Zm51.46,124.02l.31-82.72c0-8.36.55-15.25,1.66-20.92,3.32-16.96,22.6-25.72,37.56-17.07.05.03.11.06.16.09,14.01,8.15,18.61,15.79,18.61,15.79l9.97,28.84h11.78s-2.14-43.62-2.14-43.62c-34.12-22.86-63.78-24.16-92.72-24.05-70.75.27-107.19,47.7-107.19,91.65,0,12.96,2.33,24.19,6.58,34.04.38.88-.8,1.59-1.39.82l-95.66-123.46h-41.61s-23.38,0-23.38,0h-31.49s1.61,8.04,1.61,8.04c0,0,35.84-.43,68.69,41.5l218.61,278.97h0s6.04,7.7,6.04,7.7c-2.87.31-5.82.52-8.85.53-33.23.2-63.78-14.47-82.54-48.24l-17.15-43.95h-9.11s3.75,84.68,3.75,84.68c30.55,9.65,69.13,17.42,101.83,17.68,75.57.62,122.74-53.6,122.74-103.44,0-56.37-38.86-81.67-96.69-102.88Zm-92.28,14.5c-.6-.77.41-1.75,1.16-1.13,16.54,13.57,38.48,23.54,62.93,32.16,6.15,2.17,12.04,4.32,17.61,6.57l.17,66.15-1.07.55-80.81-104.3Z"/><path class="cls-2" d="m354.67,412.46l.52-136.53c31.51,14.46,50.81,33.02,50.81,67.23,0,33.14-19.32,60.43-51.33,69.3Zm-50.72-317.1c6.61-3.88,14.64-4.61,21.82-1.92,14.07,5.27,18.7,16.22,18.7,42.15l.21,79.8c-38.71-14.79-68.92-31.81-68.92-70.53,0-20.81,10.56-39.15,28.19-49.5Zm51.46,124.02l.31-82.72c0-8.36.55-15.25,1.66-20.92,3.32-16.96,22.6-25.72,37.56-17.07.05.03.11.06.16.09,14.01,8.15,18.61,15.79,18.61,15.79l9.97,28.84h11.78s-2.14-43.62-2.14-43.62c-34.12-22.86-63.78-24.16-92.72-24.05-70.75.27-107.19,47.7-107.19,91.65,0,12.96,2.33,24.19,6.58,34.04.38.88-.8,1.59-1.39.82l-95.66-123.46h-41.61s-23.38,0-23.38,0h-31.49s1.61,8.04,1.61,8.04c0,0,35.84-.43,68.69,41.5l218.61,278.97h0s6.04,7.7,6.04,7.7c-2.87.31-5.82.52-8.85.53-33.23.2-63.78-14.47-82.54-48.24l-17.15-43.95h-9.11s3.75,84.68,3.75,84.68c30.55,9.65,69.13,17.42,101.83,17.68,75.57.62,122.74-53.6,122.74-103.44,0-56.37-38.86-81.67-96.69-102.88Zm-92.28,14.5c-.6-.77.41-1.75,1.16-1.13,16.54,13.57,38.48,23.54,62.93,32.16,6.15,2.17,12.04,4.32,17.61,6.57l.17,66.15-1.07.55-80.81-104.3Z"/><path class="cls-2" d="m355.39,411.74l.52-136.53c31.51,14.46,50.81,33.02,50.81,67.23,0,33.14-19.32,60.43-51.33,69.3Zm-50.72-317.1c6.61-3.88,14.64-4.61,21.82-1.92,14.07,5.27,18.7,16.22,18.7,42.15l.21,79.8c-38.71-14.79-68.92-31.81-68.92-70.53,0-20.81,10.56-39.15,28.19-49.5Zm51.46,124.02l.31-82.72c0-8.36.55-15.25,1.66-20.92,3.32-16.96,22.6-25.72,37.56-17.07.05.03.11.06.16.09,14.01,8.15,18.61,15.79,18.61,15.79l9.97,28.84h11.78s-2.14-43.62-2.14-43.62c-34.12-22.86-63.78-24.05-92.72-24.05-70.75.53-107.19,47.7-107.19,91.65,0,12.96,2.33,24.19,6.58,34.04.38.88-.8,1.59-1.39.82l-95.66-123.46h-41.61s-23.38,0-23.38,0h-31.49s1.61,8.04,1.61,8.04c0,0,35.84-.43,68.69,41.5l218.61,278.97h0s6.04,7.7,6.04,7.7c-2.87.31-5.82.5-8.85.53-33.23,0-63.78-14.47-82.54-48.24l-17.15-43.95h-9.11s3.75,84.68,3.75,84.68c30.55,9.65,69.14,18.22,101.83,17.68,75.57,0,122.74-53.6,122.74-103.44,0-56.37-38.86-81.67-96.69-102.88Zm-92.28,14.5c-.6-.77.41-1.75,1.16-1.13,16.54,13.57,38.52,23.44,62.93,32.16,6.16,2.15,12.04,4.32,17.61,6.57l.17,66.15-1.07.55-80.81-104.3Z"/><path class="cls-2" d="m338.87,428.26l.52-136.53c31.51,14.46,50.81,33.02,50.81,67.23,0,33.14-19.32,60.43-51.33,69.3Zm-50.72-317.1c6.61-3.88,14.64-4.61,21.82-1.92,14.07,5.27,18.7,16.22,18.7,42.15l.21,79.8c-38.71-14.79-68.92-31.81-68.92-70.53,0-20.81,10.56-39.15,28.19-49.5Zm51.46,124.02l.31-82.72c0-8.36.55-15.25,1.66-20.92,3.32-16.96,22.6-25.72,37.56-17.07.05.03.11.06.16.09,14.01,8.15,18.61,15.79,18.61,15.79l9.97,28.84h11.78s-2.14-43.62-2.14-43.62c-34.12-22.86-63.78-24.05-92.72-24.05-70.75.53-107.19,47.7-107.19,91.65,0,12.96,2.33,24.19,6.58,34.04.38.88-.8,1.59-1.39.82l-95.66-123.46h-41.61s-23.38,0-23.38,0h-31.49s1.61,8.04,1.61,8.04c0,0,35.84-.43,68.69,41.5l218.61,278.97h0s6.04,7.7,6.04,7.7c-2.87.31-5.82.5-8.85.53-33.23,0-63.78-14.47-82.54-48.24l-17.15-43.95h-9.11s3.75,84.68,3.75,84.68c30.55,9.65,69.14,18.22,101.83,17.68,75.57,0,122.74-53.6,122.74-103.44,0-56.37-38.86-81.67-96.69-102.88Zm-92.28,14.5c-.6-.77.41-1.75,1.16-1.13,16.54,13.57,38.52,23.44,62.93,32.16,6.16,2.15,12.04,4.32,17.61,6.57l.17,66.15-1.07.55-80.81-104.3Z"/><path class="cls-2" d="m339.58,427.54l.52-136.53c31.51,14.46,50.81,33.02,50.81,67.23,0,33.14-19.32,60.43-51.33,69.3Zm-50.72-317.1c6.61-3.88,14.64-4.61,21.82-1.92,14.07,5.27,18.7,16.22,18.7,42.15l.21,79.8c-38.71-14.79-68.92-31.81-68.92-70.53,0-20.81,10.56-39.15,28.19-49.5Zm51.46,124.02l.31-82.72c0-8.36.55-15.25,1.66-20.92,3.32-16.96,22.6-25.72,37.56-17.07.05.03.11.06.16.09,14.01,8.15,18.61,15.79,18.61,15.79l9.97,28.84h11.78s-2.14-43.62-2.14-43.62c-34.12-22.86-63.78-24.16-92.72-24.05-70.75.27-107.19,47.7-107.19,91.65,0,12.96,2.33,24.19,6.58,34.04.38.88-.8,1.59-1.39.82l-95.66-123.46h-41.61s-23.38,0-23.38,0h-31.49s1.61,8.04,1.61,8.04c0,0,35.84-.43,68.69,41.5l218.61,278.97h0s6.04,7.7,6.04,7.7c-2.87.31-5.82.52-8.85.53-33.23.2-63.78-14.47-82.54-48.24l-17.15-43.95h-9.11s3.75,84.68,3.75,84.68c30.55,9.65,69.13,17.42,101.83,17.68,75.57.62,122.74-53.6,122.74-103.44,0-56.37-38.86-81.67-96.69-102.88Zm-92.28,14.5c-.6-.77.41-1.75,1.16-1.13,16.54,13.57,38.48,23.54,62.93,32.16,6.15,2.17,12.04,4.32,17.61,6.57l.17,66.15-1.07.55-80.81-104.3Z"/><path class="cls-2" d="m340.3,426.82l.52-136.53c31.51,14.46,50.81,33.02,50.81,67.23,0,33.14-19.32,60.43-51.33,69.3Zm-50.72-317.1c6.61-3.88,14.64-4.61,21.82-1.92,14.07,5.27,18.7,16.22,18.7,42.15l.21,79.8c-38.71-14.79-68.92-31.81-68.92-70.53,0-20.81,10.56-39.15,28.19-49.5Zm51.46,124.02l.31-82.72c0-8.36.55-15.25,1.66-20.92,3.32-16.96,22.6-25.72,37.56-17.07.05.03.11.06.16.09,14.01,8.15,18.61,15.79,18.61,15.79l9.97,28.84h11.78s-2.14-43.62-2.14-43.62c-34.12-22.86-63.78-24.16-92.72-24.05-70.75.27-107.19,47.7-107.19,91.65,0,12.96,2.33,24.19,6.58,34.04.38.88-.8,1.59-1.39.82l-95.66-123.46h-41.61s-23.38,0-23.38,0h-31.49s1.61,8.04,1.61,8.04c0,0,35.84-.43,68.69,41.5l218.61,278.97h0s6.04,7.7,6.04,7.7c-2.87.31-5.82.52-8.85.53-33.23.2-63.78-14.47-82.54-48.24l-17.15-43.95h-9.11s3.75,84.68,3.75,84.68c30.55,9.65,69.13,17.42,101.83,17.68,75.57.62,122.74-53.6,122.74-103.44,0-56.37-38.86-81.67-96.69-102.88Zm-92.28,14.5c-.6-.77.41-1.75,1.16-1.13,16.54,13.57,38.48,23.54,62.93,32.16,6.15,2.17,12.04,4.32,17.61,6.57l.17,66.15-1.07.55-80.81-104.3Z"/><path class="cls-2" d="m341.02,426.11l.52-136.53c31.51,14.46,50.81,33.02,50.81,67.23,0,33.14-19.32,60.43-51.33,69.3Zm-50.72-317.1c6.61-3.88,14.64-4.61,21.82-1.92,14.07,5.27,18.7,16.22,18.7,42.15l.21,79.8c-38.71-14.79-68.92-31.81-68.92-70.53,0-20.81,10.56-39.15,28.19-49.5Zm51.46,124.02l.31-82.72c0-8.36.55-15.25,1.66-20.92,3.32-16.96,22.6-25.72,37.56-17.07.05.03.11.06.16.09,14.01,8.15,18.61,15.79,18.61,15.79l9.97,28.84h11.78s-2.14-43.62-2.14-43.62c-34.12-22.86-63.78-24.16-92.72-24.05-70.75.27-107.19,47.7-107.19,91.65,0,12.96,2.33,24.19,6.58,34.04.38.88-.8,1.59-1.39.82l-95.66-123.46h-41.61s-23.38,0-23.38,0h-31.49s1.61,8.04,1.61,8.04c0,0,35.84-.43,68.69,41.5l218.61,278.97h0s6.04,7.7,6.04,7.7c-2.87.31-5.82.52-8.85.53-33.23.2-63.78-14.47-82.54-48.24l-17.15-43.95h-9.11s3.75,84.68,3.75,84.68c30.55,9.65,69.13,17.42,101.83,17.68,75.57.62,122.74-53.6,122.74-103.44,0-56.37-38.86-81.67-96.69-102.88Zm-92.28,14.5c-.6-.77.41-1.75,1.16-1.13,16.54,13.57,38.48,23.54,62.93,32.16,6.15,2.17,12.04,4.32,17.61,6.57l.17,66.15-1.07.55-80.81-104.3Z"/><path class="cls-2" d="m341.74,425.39l.52-136.53c31.51,14.46,50.81,33.02,50.81,67.23,0,33.14-19.32,60.43-51.33,69.3Zm-50.72-317.1c6.61-3.88,14.64-4.61,21.82-1.92,14.07,5.27,18.7,16.22,18.7,42.15l.21,79.8c-38.71-14.79-68.92-31.81-68.92-70.53,0-20.81,10.56-39.15,28.19-49.5Zm51.46,124.02l.31-82.72c0-8.36.55-15.25,1.66-20.92,3.32-16.96,22.6-25.72,37.56-17.07.05.03.11.06.16.09,14.01,8.15,18.61,15.79,18.61,15.79l9.97,28.84h11.78s-2.14-43.62-2.14-43.62c-34.12-22.86-63.78-24.16-92.72-24.05-70.75.27-107.19,47.7-107.19,91.65,0,12.96,2.33,24.19,6.58,34.04.38.88-.8,1.59-1.39.82l-95.66-123.46h-41.61s-23.38,0-23.38,0h-31.49s1.61,8.04,1.61,8.04c0,0,35.84-.43,68.69,41.5l218.61,278.97h0s6.04,7.7,6.04,7.7c-2.87.31-5.82.52-8.85.53-33.23.2-63.78-14.47-82.54-48.24l-17.15-43.95h-9.11s3.75,84.68,3.75,84.68c30.55,9.65,69.13,17.42,101.83,17.68,75.57.62,122.74-53.6,122.74-103.44,0-56.37-38.86-81.67-96.69-102.88Zm-92.28,14.5c-.6-.77.41-1.75,1.16-1.13,16.54,13.57,38.48,23.54,62.93,32.16,6.15,2.17,12.04,4.32,17.61,6.57l.17,66.15-1.07.55-80.81-104.3Z"/><path class="cls-2" d="m342.46,424.67l.52-136.53c31.51,14.46,50.81,33.02,50.81,67.23,0,33.14-19.32,60.43-51.33,69.3Zm-50.72-317.1c6.61-3.88,14.64-4.61,21.82-1.92,14.07,5.27,18.7,16.22,18.7,42.15l.21,79.8c-38.71-14.79-68.92-31.81-68.92-70.53,0-20.81,10.56-39.15,28.19-49.5Zm51.46,124.02l.31-82.72c0-8.36.55-15.25,1.66-20.92,3.32-16.96,22.6-25.72,37.56-17.07.05.03.11.06.16.09,14.01,8.15,18.61,15.79,18.61,15.79l9.97,28.84h11.78s-2.14-43.62-2.14-43.62c-34.12-22.86-63.78-24.16-92.72-24.05-70.75.27-107.19,47.7-107.19,91.65,0,12.96,2.33,24.19,6.58,34.04.38.88-.8,1.59-1.39.82l-95.66-123.46h-41.61s-23.38,0-23.38,0h-31.49s1.61,8.04,1.61,8.04c0,0,35.84-.43,68.69,41.5l218.61,278.97h0s6.04,7.7,6.04,7.7c-2.87.31-5.82.52-8.85.53-33.23.2-63.78-14.47-82.54-48.24l-17.15-43.95h-9.11s3.75,84.68,3.75,84.68c30.55,9.65,69.13,17.42,101.83,17.68,75.57.62,122.74-53.6,122.74-103.44,0-56.37-38.86-81.67-96.69-102.88Zm-92.28,14.5c-.6-.77.41-1.75,1.16-1.13,16.54,13.57,38.48,23.54,62.93,32.16,6.15,2.17,12.04,4.32,17.61,6.57l.17,66.15-1.07.55-80.81-104.3Z"/><path class="cls-2" d="m343.18,423.95l.52-136.53c31.51,14.46,50.81,33.02,50.81,67.23,0,33.14-19.32,60.43-51.33,69.3Zm-50.72-317.1c6.61-3.88,14.64-4.61,21.82-1.92,14.07,5.27,18.7,16.22,18.7,42.15l.21,79.8c-38.71-14.79-68.92-31.81-68.92-70.53,0-20.81,10.56-39.15,28.19-49.5Zm51.46,124.02l.31-82.72c0-8.36.55-15.25,1.66-20.92,3.32-16.96,22.6-25.72,37.56-17.07.05.03.11.06.16.09,14.01,8.15,18.61,15.79,18.61,15.79l9.97,28.84h11.78s-2.14-43.62-2.14-43.62c-34.12-22.86-63.78-24.16-92.72-24.05-70.75.27-107.19,47.7-107.19,91.65,0,12.96,2.33,24.19,6.58,34.04.38.88-.8,1.59-1.39.82l-95.66-123.46h-41.61s-23.38,0-23.38,0h-31.49s1.61,8.04,1.61,8.04c0,0,35.84-.43,68.69,41.5l218.61,278.97h0s6.04,7.7,6.04,7.7c-2.87.31-5.82.52-8.85.53-33.23.2-63.78-14.47-82.54-48.24l-17.15-43.95h-9.11s3.75,84.68,3.75,84.68c30.55,9.65,69.13,17.42,101.83,17.68,75.57.62,122.74-53.6,122.74-103.44,0-56.37-38.86-81.67-96.69-102.88Zm-92.28,14.5c-.6-.77.41-1.75,1.16-1.13,16.54,13.57,38.48,23.54,62.93,32.16,6.15,2.17,12.04,4.32,17.61,6.57l.17,66.15-1.07.55-80.81-104.3Z"/><path class="cls-2" d="m343.89,423.23l.52-136.53c31.51,14.46,50.81,33.02,50.81,67.23,0,33.14-19.32,60.43-51.33,69.3Zm-50.72-317.1c6.61-3.88,14.64-4.61,21.82-1.92,14.07,5.27,18.7,16.22,18.7,42.15l.21,79.8c-38.71-14.79-68.92-31.81-68.92-70.53,0-20.81,10.56-39.15,28.19-49.5Zm51.46,124.02l.31-82.72c0-8.36.55-15.25,1.66-20.92,3.32-16.96,22.6-25.72,37.56-17.07.05.03.11.06.16.09,14.01,8.15,18.61,15.79,18.61,15.79l9.97,28.84h11.78s-2.14-43.62-2.14-43.62c-34.12-22.86-63.78-24.16-92.72-24.05-70.75.27-107.19,47.7-107.19,91.65,0,12.96,2.33,24.19,6.58,34.04.38.88-.8,1.59-1.39.82l-95.66-123.46h-41.61s-23.38,0-23.38,0h-31.49s1.61,8.04,1.61,8.04c0,0,35.84-.43,68.69,41.5l218.61,278.97h0s6.04,7.7,6.04,7.7c-2.87.31-5.82.52-8.85.53-33.23.2-63.78-14.47-82.54-48.24l-17.15-43.95h-9.11s3.75,84.68,3.75,84.68c30.55,9.65,69.13,17.42,101.83,17.68,75.57.62,122.74-53.6,122.74-103.44,0-56.37-38.86-81.67-96.69-102.88Zm-92.28,14.5c-.6-.77.41-1.75,1.16-1.13,16.54,13.57,38.48,23.54,62.93,32.16,6.15,2.17,12.04,4.32,17.61,6.57l.17,66.15-1.07.55-80.81-104.3Z"/><path class="cls-2" d="m344.61,422.51l.52-136.53c31.51,14.46,50.81,33.02,50.81,67.23,0,33.14-19.32,60.43-51.33,69.3Zm-50.72-317.1c6.61-3.88,14.64-4.61,21.82-1.92,14.07,5.27,18.7,16.22,18.7,42.15l.21,79.8c-38.71-14.79-68.92-31.81-68.92-70.53,0-20.81,10.56-39.15,28.19-49.5Zm51.46,124.02l.31-82.72c0-8.36.55-15.25,1.66-20.92,3.32-16.96,22.6-25.72,37.56-17.07.05.03.11.06.16.09,14.01,8.15,18.61,15.79,18.61,15.79l9.97,28.84h11.78s-2.14-43.62-2.14-43.62c-34.12-22.86-63.78-24.16-92.72-24.05-70.75.27-107.19,47.7-107.19,91.65,0,12.96,2.33,24.19,6.58,34.04.38.88-.8,1.59-1.39.82l-95.66-123.46h-41.61s-23.38,0-23.38,0h-31.49s1.61,8.04,1.61,8.04c0,0,35.84-.43,68.69,41.5l218.61,278.97h0s6.04,7.7,6.04,7.7c-2.87.31-5.82.52-8.85.53-33.23.2-63.78-14.47-82.54-48.24l-17.15-43.95h-9.11s3.75,84.68,3.75,84.68c30.55,9.65,69.13,17.42,101.83,17.68,75.57.62,122.74-53.6,122.74-103.44,0-56.37-38.86-81.67-96.69-102.88Zm-92.28,14.5c-.6-.77.41-1.75,1.16-1.13,16.54,13.57,38.48,23.54,62.93,32.16,6.15,2.17,12.04,4.32,17.61,6.57l.17,66.15-1.07.55-80.81-104.3Z"/><path class="cls-2" d="m345.33,421.8l.52-136.53c31.51,14.46,50.81,33.02,50.81,67.23,0,33.14-19.32,60.43-51.33,69.3Zm-50.72-317.1c6.61-3.88,14.64-4.61,21.82-1.92,14.07,5.27,18.7,16.22,18.7,42.15l.21,79.8c-38.71-14.79-68.92-31.81-68.92-70.53,0-20.81,10.56-39.15,28.19-49.5Zm51.46,124.02l.31-82.72c0-8.36.55-15.25,1.66-20.92,3.32-16.96,22.6-25.72,37.56-17.07.05.03.11.06.16.09,14.01,8.15,18.61,15.79,18.61,15.79l9.97,28.84h11.78s-2.14-43.62-2.14-43.62c-34.12-22.86-63.78-24.16-92.72-24.05-70.75.27-107.19,47.7-107.19,91.65,0,12.96,2.33,24.19,6.58,34.04.38.88-.8,1.59-1.39.82l-95.66-123.46h-41.61s-23.38,0-23.38,0h-31.49s1.61,8.04,1.61,8.04c0,0,35.84-.43,68.69,41.5l218.61,278.97h0s6.04,7.7,6.04,7.7c-2.87.31-5.82.52-8.85.53-33.23.2-63.78-14.47-82.54-48.24l-17.15-43.95h-9.11s3.75,84.68,3.75,84.68c30.55,9.65,69.13,17.42,101.83,17.68,75.57.62,122.74-53.6,122.74-103.44,0-56.37-38.86-81.67-96.69-102.88Zm-92.28,14.5c-.6-.77.41-1.75,1.16-1.13,16.54,13.57,38.48,23.54,62.93,32.16,6.15,2.17,12.04,4.32,17.61,6.57l.17,66.15-1.07.55-80.81-104.3Z"/><path class="cls-2" d="m346.05,421.08l.52-136.53c31.51,14.46,50.81,33.02,50.81,67.23,0,33.14-19.32,60.43-51.33,69.3Zm-50.72-317.1c6.61-3.88,14.64-4.61,21.82-1.92,14.07,5.27,18.7,16.22,18.7,42.15l.21,79.8c-38.71-14.79-68.92-31.81-68.92-70.53,0-20.81,10.56-39.15,28.19-49.5Zm51.46,124.02l.31-82.72c0-8.36.55-15.25,1.66-20.92,3.32-16.96,22.6-25.72,37.56-17.07.05.03.11.06.16.09,14.01,8.15,18.61,15.79,18.61,15.79l9.97,28.84h11.78s-2.14-43.62-2.14-43.62c-34.12-22.86-63.78-24.16-92.72-24.05-70.75.27-107.19,47.7-107.19,91.65,0,12.96,2.33,24.19,6.58,34.04.38.88-.8,1.59-1.39.82l-95.66-123.46h-41.61s-23.38,0-23.38,0h-31.49s1.61,8.04,1.61,8.04c0,0,35.84-.43,68.69,41.5l218.61,278.97h0s6.04,7.7,6.04,7.7c-2.87.31-5.82.52-8.85.53-33.23.2-63.78-14.47-82.54-48.24l-17.15-43.95h-9.11s3.75,84.68,3.75,84.68c30.55,9.65,69.13,17.42,101.83,17.68,75.57.62,122.74-53.6,122.74-103.44,0-56.37-38.86-81.67-96.69-102.88Zm-92.28,14.5c-.6-.77.41-1.75,1.16-1.13,16.54,13.57,38.48,23.54,62.93,32.16,6.15,2.17,12.04,4.32,17.61,6.57l.17,66.15-1.07.55-80.81-104.3Z"/><path class="cls-2" d="m346.77,420.36l.52-136.53c31.51,14.46,50.81,33.02,50.81,67.23,0,33.14-19.32,60.43-51.33,69.3Zm-50.72-317.1c6.61-3.88,14.64-4.61,21.82-1.92,14.07,5.27,18.7,16.22,18.7,42.15l.21,79.8c-38.71-14.79-68.92-31.81-68.92-70.53,0-20.81,10.56-39.15,28.19-49.5Zm51.46,124.02l.31-82.72c0-8.36.55-15.25,1.66-20.92,3.32-16.96,22.6-25.72,37.56-17.07.05.03.11.06.16.09,14.01,8.15,18.61,15.79,18.61,15.79l9.97,28.84h11.78s-2.14-43.62-2.14-43.62c-34.12-22.86-63.78-24.16-92.72-24.05-70.75.27-107.19,47.7-107.19,91.65,0,12.96,2.33,24.19,6.58,34.04.38.88-.8,1.59-1.39.82l-95.66-123.46h-41.61s-23.38,0-23.38,0h-31.49s1.61,8.04,1.61,8.04c0,0,35.84-.43,68.69,41.5l218.61,278.97h0s6.04,7.7,6.04,7.7c-2.87.31-5.82.52-8.85.53-33.23.2-63.78-14.47-82.54-48.24l-17.15-43.95h-9.11s3.75,84.68,3.75,84.68c30.55,9.65,69.13,17.42,101.83,17.68,75.57.62,122.74-53.6,122.74-103.44,0-56.37-38.86-81.67-96.69-102.88Zm-92.28,14.5c-.6-.77.41-1.75,1.16-1.13,16.54,13.57,38.48,23.54,62.93,32.16,6.15,2.17,12.04,4.32,17.61,6.57l.17,66.15-1.07.55-80.81-104.3Z"/><path class="cls-2" d="m347.49,419.64l.52-136.53c31.51,14.46,50.81,33.02,50.81,67.23,0,33.14-19.32,60.43-51.33,69.3Zm-50.72-317.1c6.61-3.88,14.64-4.61,21.82-1.92,14.07,5.27,18.7,16.22,18.7,42.15l.21,79.8c-38.71-14.79-68.92-31.81-68.92-70.53,0-20.81,10.56-39.15,28.19-49.5Zm51.46,124.02l.31-82.72c0-8.36.55-15.25,1.66-20.92,3.32-16.96,22.6-25.72,37.56-17.07.05.03.11.06.16.09,14.01,8.15,18.61,15.79,18.61,15.79l9.97,28.84h11.78s-2.14-43.62-2.14-43.62c-34.12-22.86-63.78-24.16-92.72-24.05-70.75.27-107.19,47.7-107.19,91.65,0,12.96,2.33,24.19,6.58,34.04.38.88-.8,1.59-1.39.82l-95.66-123.46h-41.61s-23.38,0-23.38,0h-31.49s1.61,8.04,1.61,8.04c0,0,35.84-.43,68.69,41.5l218.61,278.97h0s6.04,7.7,6.04,7.7c-2.87.31-5.82.52-8.85.53-33.23.2-63.78-14.47-82.54-48.24l-17.15-43.95h-9.11s3.75,84.68,3.75,84.68c30.55,9.65,69.13,17.42,101.83,17.68,75.57.62,122.74-53.6,122.74-103.44,0-56.37-38.86-81.67-96.69-102.88Zm-92.28,14.5c-.6-.77.41-1.75,1.16-1.13,16.54,13.57,38.48,23.54,62.93,32.16,6.15,2.17,12.04,4.32,17.61,6.57l.17,66.15-1.07.55-80.81-104.3Z"/><path class="cls-2" d="m348.2,418.92l.52-136.53c31.51,14.46,50.81,33.02,50.81,67.23,0,33.14-19.32,60.43-51.33,69.3Zm-50.72-317.1c6.61-3.88,14.64-4.61,21.82-1.92,14.07,5.27,18.7,16.22,18.7,42.15l.21,79.8c-38.71-14.79-68.92-31.81-68.92-70.53,0-20.81,10.56-39.15,28.19-49.5Zm51.46,124.02l.31-82.72c0-8.36.55-15.25,1.66-20.92,3.32-16.96,22.6-25.72,37.56-17.07.05.03.11.06.16.09,14.01,8.15,18.61,15.79,18.61,15.79l9.97,28.84h11.78s-2.14-43.62-2.14-43.62c-34.12-22.86-63.78-24.16-92.72-24.05-70.75.27-107.19,47.7-107.19,91.65,0,12.96,2.33,24.19,6.58,34.04.38.88-.8,1.59-1.39.82l-95.66-123.46h-41.61s-23.38,0-23.38,0h-31.49s1.61,8.04,1.61,8.04c0,0,35.84-.43,68.69,41.5l218.61,278.97h0s6.04,7.7,6.04,7.7c-2.87.31-5.82.52-8.85.53-33.23.2-63.78-14.47-82.54-48.24l-17.15-43.95h-9.11s3.75,84.68,3.75,84.68c30.55,9.65,69.13,17.42,101.83,17.68,75.57.62,122.74-53.6,122.74-103.44,0-56.37-38.86-81.67-96.69-102.88Zm-92.28,14.5c-.6-.77.41-1.75,1.16-1.13,16.54,13.57,38.48,23.54,62.93,32.16,6.15,2.17,12.04,4.32,17.61,6.57l.17,66.15-1.07.55-80.81-104.3Z"/><path class="cls-2" d="m348.92,418.2l.52-136.53c31.51,14.46,50.81,33.02,50.81,67.23,0,33.14-19.32,60.43-51.33,69.3Zm-50.72-317.1c6.61-3.88,14.64-4.61,21.82-1.92,14.07,5.27,18.7,16.22,18.7,42.15l.21,79.8c-38.71-14.79-68.92-31.81-68.92-70.53,0-20.81,10.56-39.15,28.19-49.5Zm51.46,124.02l.31-82.72c0-8.36.55-15.25,1.66-20.92,3.32-16.96,22.6-25.72,37.56-17.07.05.03.11.06.16.09,14.01,8.15,18.61,15.79,18.61,15.79l9.97,28.84h11.78s-2.14-43.62-2.14-43.62c-34.12-22.86-63.78-24.16-92.72-24.05-70.75.27-107.19,47.7-107.19,91.65,0,12.96,2.33,24.19,6.58,34.04.38.88-.8,1.59-1.39.82l-95.66-123.46h-41.61s-23.38,0-23.38,0h-31.49s1.61,8.04,1.61,8.04c0,0,35.84-.43,68.69,41.5l218.61,278.97h0s6.04,7.7,6.04,7.7c-2.87.31-5.82.52-8.85.53-33.23.2-63.78-14.47-82.54-48.24l-17.15-43.95h-9.11s3.75,84.68,3.75,84.68c30.55,9.65,69.13,17.42,101.83,17.68,75.57.62,122.74-53.6,122.74-103.44,0-56.37-38.86-81.67-96.69-102.88Zm-92.28,14.5c-.6-.77.41-1.75,1.16-1.13,16.54,13.57,38.48,23.54,62.93,32.16,6.15,2.17,12.04,4.32,17.61,6.57l.17,66.15-1.07.55-80.81-104.3Z"/><path class="cls-2" d="m349.64,417.49l.52-136.53c31.51,14.46,50.81,33.02,50.81,67.23,0,33.14-19.32,60.43-51.33,69.3Zm-50.72-317.1c6.61-3.88,14.64-4.61,21.82-1.92,14.07,5.27,18.7,16.22,18.7,42.15l.21,79.8c-38.71-14.79-68.92-31.81-68.92-70.53,0-20.81,10.56-39.15,28.19-49.5Zm51.46,124.02l.31-82.72c0-8.36.55-15.25,1.66-20.92,3.32-16.96,22.6-25.72,37.56-17.07.05.03.11.06.16.09,14.01,8.15,18.61,15.79,18.61,15.79l9.97,28.84h11.78s-2.14-43.62-2.14-43.62c-34.12-22.86-63.78-24.16-92.72-24.05-70.75.27-107.19,47.7-107.19,91.65,0,12.96,2.33,24.19,6.58,34.04.38.88-.8,1.59-1.39.82l-95.66-123.46h-41.61s-23.38,0-23.38,0h-31.49s1.61,8.04,1.61,8.04c0,0,35.84-.43,68.69,41.5l218.61,278.97h0s6.04,7.7,6.04,7.7c-2.87.31-5.82.52-8.85.53-33.23.2-63.78-14.47-82.54-48.24l-17.15-43.95h-9.11s3.75,84.68,3.75,84.68c30.55,9.65,69.13,17.42,101.83,17.68,75.57.62,122.74-53.6,122.74-103.44,0-56.37-38.86-81.67-96.69-102.88Zm-92.28,14.5c-.6-.77.41-1.75,1.16-1.13,16.54,13.57,38.48,23.54,62.93,32.16,6.15,2.17,12.04,4.32,17.61,6.57l.17,66.15-1.07.55-80.81-104.3Z"/><path class="cls-2" d="m350.36,416.77l.52-136.53c31.51,14.46,50.81,33.02,50.81,67.23,0,33.14-19.32,60.43-51.33,69.3Zm-50.72-317.1c6.61-3.88,14.64-4.61,21.82-1.92,14.07,5.27,18.7,16.22,18.7,42.15l.21,79.8c-38.71-14.79-68.92-31.81-68.92-70.53,0-20.81,10.56-39.15,28.19-49.5Zm51.46,124.02l.31-82.72c0-8.36.55-15.25,1.66-20.92,3.32-16.96,22.6-25.72,37.56-17.07.05.03.11.06.16.09,14.01,8.15,18.61,15.79,18.61,15.79l9.97,28.84h11.78s-2.14-43.62-2.14-43.62c-34.12-22.86-63.78-24.16-92.72-24.05-70.75.27-107.19,47.7-107.19,91.65,0,12.96,2.33,24.19,6.58,34.04.38.88-.8,1.59-1.39.82l-95.66-123.46h-41.61s-23.38,0-23.38,0h-31.49s1.61,8.04,1.61,8.04c0,0,35.84-.43,68.69,41.5l218.61,278.97h0s6.04,7.7,6.04,7.7c-2.87.31-5.82.52-8.85.53-33.23.2-63.78-14.47-82.54-48.24l-17.15-43.95h-9.11s3.75,84.68,3.75,84.68c30.55,9.65,69.13,17.42,101.83,17.68,75.57.62,122.74-53.6,122.74-103.44,0-56.37-38.86-81.67-96.69-102.88Zm-92.28,14.5c-.6-.77.41-1.75,1.16-1.13,16.54,13.57,38.48,23.54,62.93,32.16,6.15,2.17,12.04,4.32,17.61,6.57l.17,66.15-1.07.55-80.81-104.3Z"/><path class="cls-2" d="m351.08,416.05l.52-136.53c31.51,14.46,50.81,33.02,50.81,67.23,0,33.14-19.32,60.43-51.33,69.3Zm-50.72-317.1c6.61-3.88,14.64-4.61,21.82-1.92,14.07,5.27,18.7,16.22,18.7,42.15l.21,79.8c-38.71-14.79-68.92-31.81-68.92-70.53,0-20.81,10.56-39.15,28.19-49.5Zm51.46,124.02l.31-82.72c0-8.36.55-15.25,1.66-20.92,3.32-16.96,22.6-25.72,37.56-17.07.05.03.11.06.16.09,14.01,8.15,18.61,15.79,18.61,15.79l9.97,28.84h11.78s-2.14-43.62-2.14-43.62c-34.12-22.86-63.78-24.16-92.72-24.05-70.75.27-107.19,47.7-107.19,91.65,0,12.96,2.33,24.19,6.58,34.04.38.88-.8,1.59-1.39.82l-95.66-123.46h-41.61s-23.38,0-23.38,0h-31.49s1.61,8.04,1.61,8.04c0,0,35.84-.43,68.69,41.5l218.61,278.97h0s6.04,7.7,6.04,7.7c-2.87.31-5.82.52-8.85.53-33.23.2-63.78-14.47-82.54-48.24l-17.15-43.95h-9.11s3.75,84.68,3.75,84.68c30.55,9.65,69.13,17.42,101.83,17.68,75.57.62,122.74-53.6,122.74-103.44,0-56.37-38.86-81.67-96.69-102.88Zm-92.28,14.5c-.6-.77.41-1.75,1.16-1.13,16.54,13.57,38.48,23.54,62.93,32.16,6.15,2.17,12.04,4.32,17.61,6.57l.17,66.15-1.07.55-80.81-104.3Z"/><path class="cls-2" d="m351.8,415.33l.52-136.53c31.51,14.46,50.81,33.02,50.81,67.23,0,33.14-19.32,60.43-51.33,69.3Zm-50.72-317.1c6.61-3.88,14.64-4.61,21.82-1.92,14.07,5.27,18.7,16.22,18.7,42.15l.21,79.8c-38.71-14.79-68.92-31.81-68.92-70.53,0-20.81,10.56-39.15,28.19-49.5Zm51.46,124.02l.31-82.72c0-8.36.55-15.25,1.66-20.92,3.32-16.96,22.6-25.72,37.56-17.07.05.03.11.06.16.09,14.01,8.15,18.61,15.79,18.61,15.79l9.97,28.84h11.78s-2.14-43.62-2.14-43.62c-34.12-22.86-63.78-24.16-92.72-24.05-70.75.27-107.19,47.7-107.19,91.65,0,12.96,2.33,24.19,6.58,34.04.38.88-.8,1.59-1.39.82l-95.66-123.46h-41.61s-23.38,0-23.38,0h-31.49s1.61,8.04,1.61,8.04c0,0,35.84-.43,68.69,41.5l218.61,278.97h0s6.04,7.7,6.04,7.7c-2.87.31-5.82.52-8.85.53-33.23.2-63.78-14.47-82.54-48.24l-17.15-43.95h-9.11s3.75,84.68,3.75,84.68c30.55,9.65,69.13,17.42,101.83,17.68,75.57.62,122.74-53.6,122.74-103.44,0-56.37-38.86-81.67-96.69-102.88Zm-92.28,14.5c-.6-.77.41-1.75,1.16-1.13,16.54,13.57,38.48,23.54,62.93,32.16,6.15,2.17,12.04,4.32,17.61,6.57l.17,66.15-1.07.55-80.81-104.3Z"/><path class="cls-2" d="m352.51,414.61l.52-136.53c31.51,14.46,50.81,33.02,50.81,67.23,0,33.14-19.32,60.43-51.33,69.3Zm-50.72-317.1c6.61-3.88,14.64-4.61,21.82-1.92,14.07,5.27,18.7,16.22,18.7,42.15l.21,79.8c-38.71-14.79-68.92-31.81-68.92-70.53,0-20.81,10.56-39.15,28.19-49.5Zm51.46,124.02l.31-82.72c0-8.36.55-15.25,1.66-20.92,3.32-16.96,22.6-25.72,37.56-17.07.05.03.11.06.16.09,14.01,8.15,18.61,15.79,18.61,15.79l9.97,28.84h11.78s-2.14-43.62-2.14-43.62c-34.12-22.86-63.78-24.16-92.72-24.05-70.75.27-107.19,47.7-107.19,91.65,0,12.96,2.33,24.19,6.58,34.04.38.88-.8,1.59-1.39.82l-95.66-123.46h-41.61s-23.38,0-23.38,0h-31.49s1.61,8.04,1.61,8.04c0,0,35.84-.43,68.69,41.5l218.61,278.97h0s6.04,7.7,6.04,7.7c-2.87.31-5.82.52-8.85.53-33.23.2-63.78-14.47-82.54-48.24l-17.15-43.95h-9.11s3.75,84.68,3.75,84.68c30.55,9.65,69.13,17.42,101.83,17.68,75.57.62,122.74-53.6,122.74-103.44,0-56.37-38.86-81.67-96.69-102.88Zm-92.28,14.5c-.6-.77.41-1.75,1.16-1.13,16.54,13.57,38.48,23.54,62.93,32.16,6.15,2.17,12.04,4.32,17.61,6.57l.17,66.15-1.07.55-80.81-104.3Z"/><path class="cls-2" d="m353.23,413.89l.52-136.53c31.51,14.46,50.81,33.02,50.81,67.23,0,33.14-19.32,60.43-51.33,69.3Zm-50.72-317.1c6.61-3.88,14.64-4.61,21.82-1.92,14.07,5.27,18.7,16.22,18.7,42.15l.21,79.8c-38.71-14.79-68.92-31.81-68.92-70.53,0-20.81,10.56-39.15,28.19-49.5Zm51.46,124.02l.31-82.72c0-8.36.55-15.25,1.66-20.92,3.32-16.96,22.6-25.72,37.56-17.07.05.03.11.06.16.09,14.01,8.15,18.61,15.79,18.61,15.79l9.97,28.84h11.78s-2.14-43.62-2.14-43.62c-34.12-22.86-63.78-24.16-92.72-24.05-70.75.27-107.19,47.7-107.19,91.65,0,12.96,2.33,24.19,6.58,34.04.38.88-.8,1.59-1.39.82l-95.66-123.46h-41.61s-23.38,0-23.38,0h-31.49s1.61,8.04,1.61,8.04c0,0,35.84-.43,68.69,41.5l218.61,278.97h0s6.04,7.7,6.04,7.7c-2.87.31-5.82.52-8.85.53-33.23.2-63.78-14.47-82.54-48.24l-17.15-43.95h-9.11s3.75,84.68,3.75,84.68c30.55,9.65,69.13,17.42,101.83,17.68,75.57.62,122.74-53.6,122.74-103.44,0-56.37-38.86-81.67-96.69-102.88Zm-92.28,14.5c-.6-.77.41-1.75,1.16-1.13,16.54,13.57,38.48,23.54,62.93,32.16,6.15,2.17,12.04,4.32,17.61,6.57l.17,66.15-1.07.55-80.81-104.3Z"/><path class="cls-2" d="m353.95,413.18l.52-136.53c31.51,14.46,50.81,33.02,50.81,67.23,0,33.14-19.32,60.43-51.33,69.3Zm-50.72-317.1c6.61-3.88,14.64-4.61,21.82-1.92,14.07,5.27,18.7,16.22,18.7,42.15l.21,79.8c-38.71-14.79-68.92-31.81-68.92-70.53,0-20.81,10.56-39.15,28.19-49.5Zm51.46,124.02l.31-82.72c0-8.36.55-15.25,1.66-20.92,3.32-16.96,22.6-25.72,37.56-17.07.05.03.11.06.16.09,14.01,8.15,18.61,15.79,18.61,15.79l9.97,28.84h11.78s-2.14-43.62-2.14-43.62c-34.12-22.86-63.78-24.16-92.72-24.05-70.75.27-107.19,47.7-107.19,91.65,0,12.96,2.33,24.19,6.58,34.04.38.88-.8,1.59-1.39.82l-95.66-123.46h-41.61s-23.38,0-23.38,0h-31.49s1.61,8.04,1.61,8.04c0,0,35.84-.43,68.69,41.5l218.61,278.97h0s6.04,7.7,6.04,7.7c-2.87.31-5.82.52-8.85.53-33.23.2-63.78-14.47-82.54-48.24l-17.15-43.95h-9.11s3.75,84.68,3.75,84.68c30.55,9.65,69.13,17.42,101.83,17.68,75.57.62,122.74-53.6,122.74-103.44,0-56.37-38.86-81.67-96.69-102.88Zm-92.28,14.5c-.6-.77.41-1.75,1.16-1.13,16.54,13.57,38.48,23.54,62.93,32.16,6.15,2.17,12.04,4.32,17.61,6.57l.17,66.15-1.07.55-80.81-104.3Z"/><path class="cls-2" d="m354.67,412.46l.52-136.53c31.51,14.46,50.81,33.02,50.81,67.23,0,33.14-19.32,60.43-51.33,69.3Zm-50.72-317.1c6.61-3.88,14.64-4.61,21.82-1.92,14.07,5.27,18.7,16.22,18.7,42.15l.21,79.8c-38.71-14.79-68.92-31.81-68.92-70.53,0-20.81,10.56-39.15,28.19-49.5Zm51.46,124.02l.31-82.72c0-8.36.55-15.25,1.66-20.92,3.32-16.96,22.6-25.72,37.56-17.07.05.03.11.06.16.09,14.01,8.15,18.61,15.79,18.61,15.79l9.97,28.84h11.78s-2.14-43.62-2.14-43.62c-34.12-22.86-63.78-24.16-92.72-24.05-70.75.27-107.19,47.7-107.19,91.65,0,12.96,2.33,24.19,6.58,34.04.38.88-.8,1.59-1.39.82l-95.66-123.46h-41.61s-23.38,0-23.38,0h-31.49s1.61,8.04,1.61,8.04c0,0,35.84-.43,68.69,41.5l218.61,278.97h0s6.04,7.7,6.04,7.7c-2.87.31-5.82.52-8.85.53-33.23.2-63.78-14.47-82.54-48.24l-17.15-43.95h-9.11s3.75,84.68,3.75,84.68c30.55,9.65,69.13,17.42,101.83,17.68,75.57.62,122.74-53.6,122.74-103.44,0-56.37-38.86-81.67-96.69-102.88Zm-92.28,14.5c-.6-.77.41-1.75,1.16-1.13,16.54,13.57,38.48,23.54,62.93,32.16,6.15,2.17,12.04,4.32,17.61,6.57l.17,66.15-1.07.55-80.81-104.3Z"/><path class="cls-2" d="m355.39,411.74l.52-136.53c31.51,14.46,50.81,33.02,50.81,67.23,0,33.14-19.32,60.43-51.33,69.3Zm-50.72-317.1c6.61-3.88,14.64-4.61,21.82-1.92,14.07,5.27,18.7,16.22,18.7,42.15l.21,79.8c-38.71-14.79-68.92-31.81-68.92-70.53,0-20.81,10.56-39.15,28.19-49.5Zm51.46,124.02l.31-82.72c0-8.36.55-15.25,1.66-20.92,3.32-16.96,22.6-25.72,37.56-17.07.05.03.11.06.16.09,14.01,8.15,18.61,15.79,18.61,15.79l9.97,28.84h11.78s-2.14-43.62-2.14-43.62c-34.12-22.86-63.78-24.05-92.72-24.05-70.75.53-107.19,47.7-107.19,91.65,0,12.96,2.33,24.19,6.58,34.04.38.88-.8,1.59-1.39.82l-95.66-123.46h-41.61s-23.38,0-23.38,0h-31.49s1.61,8.04,1.61,8.04c0,0,35.84-.43,68.69,41.5l218.61,278.97h0s6.04,7.7,6.04,7.7c-2.87.31-5.82.5-8.85.53-33.23,0-63.78-14.47-82.54-48.24l-17.15-43.95h-9.11s3.75,84.68,3.75,84.68c30.55,9.65,69.14,18.22,101.83,17.68,75.57,0,122.74-53.6,122.74-103.44,0-56.37-38.86-81.67-96.69-102.88Zm-92.28,14.5c-.6-.77.41-1.75,1.16-1.13,16.54,13.57,38.52,23.44,62.93,32.16,6.16,2.15,12.04,4.32,17.61,6.57l.17,66.15-1.07.55-80.81-104.3Z"/><path class="cls-1" d="m356.12,218.66l.31-82.72c0-8.36.55-15.25,1.66-20.92,3.32-16.96,22.6-25.72,37.56-17.07.05.03.11.06.16.09,14.01,8.15,18.61,15.79,18.61,15.79l9.97,28.84h11.78s-2.14-43.62-2.14-43.62c-34.12-22.86-63.78-24.05-92.72-24.05-70.75.53-107.19,47.7-107.19,91.65,0,12.96,2.33,24.19,6.58,34.04.38.88-.8,1.59-1.39.82l-95.66-123.46h-41.61s-23.38,0-23.38,0h-31.49s1.61,8.04,1.61,8.04c0,0,35.84-.43,68.69,41.5l218.61,278.97h0s6.04,7.7,6.04,7.7c-2.87.31-5.82.5-8.85.53-33.23,0-63.78-14.47-82.54-48.24l-17.15-43.95h-9.11s3.75,84.68,3.75,84.68c30.55,9.65,69.14,18.22,101.83,17.68,75.57,0,122.74-53.6,122.74-103.44,0-56.37-38.86-81.67-96.69-102.88Zm-51.46-124.02c6.61-3.88,14.64-4.61,21.82-1.92,14.07,5.27,18.7,16.22,18.7,42.15l.21,79.8c-38.71-14.79-68.92-31.81-68.92-70.53,0-20.81,10.56-39.15,28.19-49.5Zm-40.83,138.52c-.6-.77.41-1.75,1.16-1.13,16.54,13.57,38.52,23.44,62.93,32.16,6.16,2.15,12.04,4.32,17.61,6.57l.17,66.15-1.07.55-80.81-104.3Zm91.55,178.58l.52-136.53c31.51,14.46,50.81,33.02,50.81,67.23,0,33.14-19.32,60.43-51.33,69.3Z"/></svg>